<svg version="1.0" xmlns="http://www.w3.org/2000/svg" width="1832" height="1242.667" viewBox="0 0 1374 932"><g fill="#FFF"><path d="M281.5 2.4c-7.5 1.9-15.2 6.2-21.3 11.9-6.3 6.1-9.7 11.5-12.3 19.8-1.8 5.9-1.9 13.8-1.9 244.2 0 256.4-.1 248.6 5.1 274 6.5 31.2 20.8 59.8 40.4 80.5 18.5 19.6 40.9 33.3 72 43.9l14 4.8 66.3.3 66.2.3v-89.8l-26.7-.6c-93.7-2.1-129-24.4-141-89.2-1.5-8.1-1.8-22.2-2-135.7l-.4-126.7 69.8-.3 69.8-.3 6.8-3.2c8.6-4.1 17.7-12.7 21.6-20.4 13.4-26.9-3.2-59.2-32.9-63.9-3.9-.6-32-1-70.7-1h-64.2l-.3-56.3c-.3-54.5-.4-56.4-2.5-61.8C328.4 9.4 305-3.4 281.5 2.4zM60 49c-27.1 6.7-47.5 26.3-56.2 54-3.3 10.8-3.3 31.1.1 42 7.9 25.5 25.4 43.8 49.8 52.3 7.3 2.5 10.8 3.1 20.9 3.5 15.8.6 24.3-1.2 38.4-8.1 9-4.4 11.8-6.4 19.1-13.7 13.6-13.4 20.4-27.3 22.9-46.3 3.1-23-6-48.1-23.2-64.3-10.4-9.8-21.4-15.9-35.2-19.4-10.3-2.6-26-2.6-36.6 0zm33.3 42.8c15.6 7.3 23.8 24.3 19.7 41.1-3.9 16.4-20.9 28.3-37.9 26.7-30.2-2.8-43.4-39.3-22-60.8 11-11 26.2-13.6 40.2-7zm704.2 50.4c-58.5 2.7-106.5 25.5-141.4 67.3-25.4 30.6-40.2 65.7-48.4 115-2.1 12.9-2.1 14.5-2.4 185.3l-.4 172.2 46.8-.2 46.8-.3.5-175.5c.6-189.6.2-176.6 5.5-194.7 4.8-16.4 15.1-34 27.3-46.5 20.9-21.5 47-31.8 80.7-31.8 31 0 54.4 8.2 75.8 26.5 18.2 15.6 30.6 37.5 36.9 65.2 2.1 9.6 2.2 11.3 2.5 98.5l.4 88.8h92.8l.4-87.8c.4-95.4.3-93.7 6.3-113.2 3.5-11.5 7.2-19.4 13.7-29.4 16.8-25.7 41.8-42 72.6-47.1 14.9-2.5 38.9-1.7 52.2 1.8 20.3 5.3 34.5 13.3 48.5 27.2 17.7 17.4 28.2 38.1 33.1 64.8 1.4 7.9 1.7 19.3 2 81.8l.4 72.6 9.2-3.5c14-5.2 21.4-6.5 37.2-6.5 15.7.1 27.1 2.4 39.8 8.1l6.7 3.1v-63.3c0-36.8-.5-68.9-1.1-76.7-3.7-45.1-16.2-84.3-36.9-115.9-8.7-13.2-15.9-21.8-28.7-34-29.2-28.2-65.2-44.9-108.8-50.5-15.7-2-46.6-2-61 0-43.9 6.1-80.7 24.6-112.5 56.5-6.3 6.3-13.3 13.9-15.5 16.8-2.1 2.8-4.2 5.2-4.5 5.2-.3 0-1.9-2-3.7-4.3-10.5-13.9-30-32-46.2-42.9-37.3-24.9-76.1-34.9-126.6-32.6zM31 448.4V682l47.3-.2 47.2-.3.3-233.3c.1-137.4-.2-233.2-.7-233.2-.5 0-4.2 1.6-8.2 3.5-12.5 5.9-21.4 7.8-37.4 7.9-18.1.1-26.9-1.9-47.2-11.1-1-.4-1.3 46.6-1.3 233.1z"/><path d="M1279.4 497.5c-21.9 4.8-41.8 19.8-51.9 39.2l-2.7 5.3h-127.2c-74.2 0-131.7.4-138.1 1-15 1.3-25 4.1-38 10.5-9.5 4.7-25.9 16.4-117.4 83.4L697.8 715l-332.7.2c-328.8.3-332.7.3-337.4 2.3-7 2.9-13.7 8.4-16.4 13.4-2 3.8-2.3 5.9-2.3 14.8 0 8.3.4 11.1 1.9 14.2 2.5 4.8 9 10.6 14.9 13.4l4.7 2.2 517.7.3 517.8.2 2.1 4.3c12.9 25.6 40.2 42.6 68.6 42.7 20.6 0 38.2-6.8 53.4-20.8 34.4-31.7 32.3-87.3-4.5-116.8-23-18.5-55.6-22-82.3-8.9-14 6.9-29.1 21.8-34.7 34.2l-1.9 4.3H936.6c-74.1 0-129.6-.4-129.1-.9 4.3-3.9 144.5-103.7 147.8-105.1 11.7-5.2 6.7-5 142.7-5h126.5l4 7.3c6 10.8 19.6 24 30.4 29.6 12.9 6.7 18.7 8.2 33.6 8.8 11.2.5 14.3.2 21.4-1.6 27.3-6.9 47.7-26.4 56.2-54.1 3.1-9.8 3.4-29.9.6-40-6.2-23-22.9-42.5-44.2-51.9-13-5.7-33-7.7-47.1-4.6zm26.8 41.5c10.8 3.3 19.5 11.6 23.5 22.2 2.3 6.4 2.1 18-.6 25-6.4 16.5-25.7 26.2-42.7 21.4-26.3-7.5-35.3-40.2-16.2-59.5 9.8-9.9 22.8-13.2 36-9.1zm-154.1 174.2c7.6 3.5 12.9 8.5 17 16 3.2 6 3.4 6.8 3.4 16.3 0 8.9-.3 10.6-2.8 15.7-3.7 7.5-9.8 13.5-17.7 17.2-5.5 2.6-7.6 3-14.5 3s-9-.4-14.7-3.1c-12.8-6-19.9-16.6-20.6-30.5-.3-5.4.1-9.4 1.3-13.1 3.2-10.4 12.7-19.8 23.4-23.2 7-2.2 18.3-1.5 25.2 1.7z"/><path d="M841.3 807.5c-4.6 2-6.6 7-4.7 12 1 2.6 6.2 4.8 9.9 4.1 8.7-1.7 9.7-13.6 1.4-16.5-1.8-.6-3.2-1.1-3.3-1.1-.1.1-1.5.7-3.3 1.5zm88.2-.1c-4 1.7-13.5 16.3-11.8 18 1.2 1.1 6.5.6 9.8-1 4.1-1.9 16.8-14.9 16.3-16.6-.6-1.8-10.6-2.1-14.3-.4zm-335.8 1.7c-3.2 1.8-4.7 7.3-4.7 16.4v8.5h-3c-5.8 0-9.2 6.7-5.2 10.3 1 .9 3.2 2 4.9 2.3l3.1.6.4 22.2c.3 24.7 1.1 27.9 7.5 32.2 6.1 4 21.6 3.8 27.3-.4 3.1-2.4 3.8-6.7 1.3-9.4-1.6-1.8-2.6-1.9-7.8-1.4-10.1 1-9.9 1.4-10.3-22.7l-.3-20.5 5.5-.6c6.4-.8 8.6-2.5 8.6-6.5 0-4.2-2.8-6.1-8.8-6.1H607v-10.1c0-9.8-.1-10.1-2.9-13-3.1-3.1-7.1-3.7-10.4-1.8zM92.9 833.3c-10.6 3-18.2 9.7-22.1 19.7-1.7 4.4-2.2 7.7-2.2 16-.1 10 .1 10.9 3.2 17.2C77.9 898.6 87.3 904 103 904c10.1 0 16.2-1.7 22.7-6.2 8.3-5.7 11.8-16.1 7-20.6-4.3-4.1-8.6-2.8-13.1 3.9-4.6 6.9-7.9 9.2-14 9.7-13 1.1-20.7-9-19.4-25.3 1-11.9 7.6-19.5 17-19.5 6.4 0 9.6 1.8 15.3 8.5 4 4.7 5.3 5.5 8.1 5.5 6.1 0 9-5.6 6.5-12.3-1.5-4-8-9.7-13.9-12.4-6.5-3.1-19.2-4-26.3-2zm93.3.2c-7.4 2.1-10.8 4.1-15.8 9.1-6.4 6.6-8.8 13.6-8.8 25.9-.1 8.9.2 10.7 2.7 16 5.2 11.1 13.7 17.5 25.9 19.4 12.9 2.1 25-1.9 33.1-10.9 6.2-6.9 8.2-13 8.2-25-.1-12.2-2.6-19-9.5-26-8.4-8.3-23.6-11.9-35.8-8.5zm19.3 14.5c4.7 2.9 7.7 9.1 8.3 17 .8 12-2.7 20.8-9.9 24.5-4.4 2.3-12 1.9-16-.8-13.4-9-11-38.3 3.5-42.7 4.1-1.2 10.3-.4 14.1 2zm57.8-14.5c-1.2.8-2.7 3.2-3.3 5.3-1.3 4.8-1.3 53.5 0 58.3 2.1 7.5 9.5 9.8 14.8 4.6l2.7-2.7.5-21.3c.6-24.4 1.5-27.7 7.4-30.2 5.1-2.2 9.1-1.9 12.3.9l2.8 2.4.5 24.1.5 24.1 2.7 2.7c3.7 3.7 8.9 3.7 12.6 0l2.7-2.7.5-21.8c.4-18.8.7-22.2 2.3-24.5 3.6-5.6 11-8.2 15.9-5.6 4.1 2.2 4.8 6.5 4.8 28.9 0 23.3.6 26 5.8 27.8 4 1.4 7.9.4 10.3-2.6 1.9-2.5 2-3.7 1.7-29.2l-.3-26.7-2.7-4c-7.1-10.7-25.1-12-35.8-2.5l-4.3 3.8-3.5-3.8c-7.9-8.7-23.4-8.7-33.4.1-4.3 3.7-4.8 3.8-4.8.7 0-5.6-8-9.5-12.7-6.1zm134-.5c-1.2.5-2.6 1.8-3.2 2.9-.7 1.3-1.1 16.8-1.1 46.1v44.1l2.5 2.4c4.6 4.7 11.6 2.5 13.5-4.3.5-2 1-9.7 1-17v-13.4l4.1 3.6c6.2 5.2 10.4 6.9 17.9 6.9 11.9.1 21.3-6.1 26.7-17.7 2.6-5.7 2.8-7 2.8-18.6 0-14.4-1.3-18.6-8.5-26.4-9.8-10.6-23.9-12.2-37.3-4.2-5.7 3.5-6.7 3.5-6.7.5 0-2.3-4.6-5.9-7.4-5.8-1.1 0-3.1.4-4.3.9zm38.8 15.3c5.3 3.5 8.2 10.3 8.1 19.5 0 9.2-2 15-6.8 19.1-4.4 3.9-9.3 4.8-14.8 2.7-8.3-3.2-11.8-9.6-11.8-21.8 0-9.5 2.6-15.6 8-19.3 4.9-3.3 12.5-3.4 17.3-.2zm59.4-15.1c-4.3 2.5-4.4 3.3-4.5 29.3 0 24.4.1 25.1 2.4 30.2 3.6 7.7 8.7 10.7 18.8 11.2 9.6.4 14.7-1.3 20.6-6.7l4.1-3.8 1.1 4.4c.9 3.5 1.7 4.6 4.5 5.8 4 1.6 7.5.7 9.9-2.8 1.4-1.9 1.6-6.4 1.6-32.6v-30.4l-2.9-2.9c-3.2-3.1-6.1-3.6-10.1-1.6s-4.9 6.5-4.9 26.7c-.1 20.8-.8 23.6-7 27.7-4.8 3.2-9.2 3.8-13.4 1.8-6.2-2.9-7-6.1-7.4-29.5-.2-11.3-.6-21.5-.9-22.7-.5-2.4-5-5.3-8.1-5.3-1 0-2.7.6-3.8 1.2zm171.7-.2c-6.5 1.4-14.2 6-16.9 10.2-3.3 4.9-3.5 10.4-.4 12.9 3.2 2.6 7.7 2.4 9.9-.3 6.5-8.1 8.8-10 13.7-10.9 9.4-1.7 15.8.8 17.4 6.8 2 7 2.7 6.6-19.3 11.3-20.9 4.5-27 9.2-27.1 21-.1 19 22.2 26.8 42.1 14.8 7.1-4.3 7.1-4.3 10.4 1.4.6 1 2.4 2.5 4 3.3 2.6 1.4 3.4 1.4 6.5.1 4.8-2 5.9-5.2 3.9-11.3-1.1-3.3-1.8-10.9-2.3-24.8-.5-16.6-1-20.6-2.5-23.8-2.1-4.3-6.4-7.8-11.6-9.6-4.5-1.6-22.2-2.3-27.8-1.1zm24.8 39.7c-.1 7-1.7 11.7-5.4 15-10 9.2-26.3 5-24.2-6.2.9-4.6 4.2-6.4 17.1-9.6 6.1-1.5 11.3-2.7 11.8-2.8.4-.1.7 1.6.7 3.6zm69.4-38.7c-7.9 2.6-15.3 9.1-19.1 16.8-2.6 5.3-2.8 6.5-2.8 18.2s.2 12.8 2.7 17.7c3.4 6.4 8.5 11.4 14.6 14.5 4.1 2 6.2 2.3 16.7 2.3 10.4 0 12.7-.3 17-2.3 6.2-2.9 11.2-7.5 13.6-12.7 2.5-5.4 2.4-8.1-.6-11.1-4.2-4.2-7.9-3.1-13.5 4.1-2.5 3.3-6.2 6.8-8.1 7.7-6.9 3.6-16.7 1.3-21.2-4.7-3.2-4.4-5-14-3.8-20.7 2-11.7 7.9-17.8 17.1-17.8 6.1 0 10.3 2.4 15 8.6 4 5.3 4.3 5.5 8.2 5.2 8.8-.6 10.1-8.8 2.8-17-8.3-9.5-25-13.3-38.6-8.8zm77.5.9l-2.9 2.9v61.1l2.4 2.7c3.2 3.8 8.6 3.9 12.4.1l2.7-2.7.3-28.3c.4-31.3-.1-34.8-4.8-37.2-4.3-2.2-6.8-1.9-10.1 1.4zm68.1-1.4c-12.9 3.7-21.1 12.8-24 26.9-4.3 21.1 8.1 40.3 28.1 43.5 16.8 2.7 32.3-4.7 38.6-18.6 3.4-7.4 4.3-20.4 1.9-28.5-3.1-10.8-11.7-20-21.4-22.8-6.5-1.9-17.3-2.1-23.2-.5zm19.5 14.3c1.8 1 4.1 4 5.8 7.1 4.5 9 3.6 23.5-2 30.1-3.5 4.3-7.4 6-13.1 6-6.5 0-10.9-3-14.2-9.5-3.4-6.8-3.5-19.9-.3-26 5.2-9.9 14.6-12.9 23.8-7.7zm57.8-13.4l-2.8 2.4-.3 28.9c-.4 32.8 0 35.7 5.3 37.9 4 1.7 8.9.3 10.8-3 .8-1.4 1.4-9.1 1.7-22.6.5-22.3 1.1-24.8 7.1-29.2 3.4-2.6 10-3.4 13.9-1.8 5.8 2.4 6.4 5.1 7 30.2.5 21.5.6 22.9 2.6 24.9 3.2 3.2 8.8 3 12.2-.4l2.7-2.7.3-19.4c.4-23.7-.6-32.5-4.5-38-8-11.4-26.2-12.6-37.5-2.6l-4.6 4-.6-3.5c-.8-3.9-4.7-7.5-8.2-7.5-1.2 0-3.6 1.1-5.1 2.4z"/></g></svg>